<!DOCTYPE svg PUBLIC "-//W3C//DTD SVG 1.1//EN" "http://www.w3.org/Graphics/SVG/1.1/DTD/svg11.dtd">
<!-- Uploaded to: SVG Repo, www.svgrepo.com, Transformed by: SVG Repo Mixer Tools -->
<svg fill="#000000" width="100px" height="100px" viewBox="0 0 32 32" version="1.1" xmlns="http://www.w3.org/2000/svg">
<g id="SVGRepo_bgCarrier" stroke-width="0"/>
<g id="SVGRepo_tracerCarrier" stroke-linecap="round" stroke-linejoin="round"/>
<g id="SVGRepo_iconCarrier"> <title>graduation-cap</title> <path d="M30.264 8.020l-13.999-5.279c-0.079-0.031-0.17-0.048-0.265-0.048s-0.186 0.018-0.27 0.050l0.005-0.002-14 5.279c-0.286 0.11-0.485 0.383-0.485 0.702s0.199 0.592 0.48 0.7l0.005 0.002 1.515 0.571v13.156l-1.601 2.4c-0.079 0.117-0.126 0.261-0.126 0.416s0.047 0.299 0.128 0.419l-0.002-0.003 1.727 2.59c0.136 0.203 0.365 0.334 0.624 0.334s0.488-0.131 0.622-0.331l0.002-0.003 1.727-2.59c0.079-0.117 0.126-0.261 0.126-0.416s-0.047-0.299-0.128-0.419l0.002 0.003-1.601-2.4v-12.59l3.409 1.285-1.677 10.119c-0.006 0.037-0.010 0.080-0.010 0.123 0 0.319 0.2 0.591 0.481 0.699l0.005 0.002c2.672 1.056 5.767 1.674 9.004 1.686h0.005c3.265-0.017 6.38-0.633 9.25-1.744l-0.177 0.060c0.288-0.11 0.488-0.383 0.488-0.703 0-0.038-0.003-0.075-0.008-0.111l0 0.004-1.478-10.211 6.222-2.346c0.287-0.11 0.486-0.383 0.486-0.702s-0.2-0.592-0.481-0.7l-0.005-0.002zM4.825 25.967l-0.825 1.238-0.825-1.238 0.825-1.238zM23.947 21.59c-2.366 0.874-5.099 1.38-7.95 1.38-2.845 0-5.572-0.504-8.097-1.426l0.164 0.052 1.526-9.21 6.145 2.317c0.079 0.030 0.17 0.048 0.265 0.048s0.186-0.018 0.27-0.050l-0.005 0.002 6.34-2.39zM16 13.198l-11.874-4.477 11.874-4.478 11.875 4.478z"/> </g>
</svg>